<svg version="1.2" xmlns="http://www.w3.org/2000/svg" viewBox="0 0 1080 1080" width="500" height="500">
	<title>logo-bugu</title>
	<style>
		.s0 { fill: #4f39f6 } 
	</style>
	<g id="&lt;Group&gt;">
		<g id="&lt;Group&gt;">
			<g id="&lt;Group&gt;">
				<path class="s0" d="m532 197.1c6.8 3.4 61.8 55.7 130.3 123.8 55.4 55.2 58.1 59.1 58.3 83.7 0 18.5-3.7 30.3-12.1 38.7-8.4 8.4-16.3 10.8-36 10.8-8.2 0-19.4 0.9-24.7 2-11.6 2.4-32 12.3-44.6 21.5-13.4 9.9-48.1 40.2-77.8 67.7-14.5 13.4-27.7 24.4-29.6 24.4-8.8 0-11.3-9.5-6.2-24.4 2.4-6.8 6.2-11.5 19.6-23.6 9.2-8.5 28.8-26.5 43.5-40.2 53.4-49.9 61.3-54.2 101.5-56 23.5-0.9 29.7-2.7 33.4-10.1 7.7-14.5-0.2-28.8-32.9-61.1-106-104.2-133-129.5-137.8-129.5-5.3 0-11.2 5.5-86.8 79.8-38.7 37.8-39.4 38.7-36.8 43.5 1.1 1.8 10.6 11.9 21.4 22.2 10.9 10.2 30.5 29.1 43.7 42 17.6 17.2 25.3 23.5 28.6 23.5 3.5 0 9.9-5.7 26.6-23.5 24.6-26.1 26.3-28.4 26.3-38 0-13.9-11.2-24.8-25.3-24.8-6.7 0-9.4 1.5-20.8 11-7.1 6.1-13.9 11.1-14.8 11.1-3 0-10.7-9.6-11.1-13.6-0.9-13.8 2.2-19.1 21.3-34.9 26.8-22.2 32.7-21.1 65.5 11.6 33.2 33.2 35.6 38.1 25.7 53.6-7.5 11.5-75 77.9-82.5 81.1-7.2 2.9-15.6 2.3-21.9-1.7-2.4-1.6-14.8-12.8-27.7-25.1-12.8-12.3-36.9-35.3-53.6-51-20.5-19.7-31.3-31.2-33.7-36.4-6.3-14.1-6.3-14.3 67.3-87.7 36.7-36.7 68.3-67.7 70.5-69.2 9.3-6.6 22-7.1 33.2-1.2zm176.1 462.4c15.1 5.5 33.2 17.2 35.4 23.3 1.9 4.7-0.1 11.1-4.4 13.9-4.9 3.3-14.6 1.3-26.4-5.9-14.8-9-21.3-11-38.9-12.3-59.6-4.2-106.8 50.3-90.1 103.9 4.8 15.4 11 25.1 23 36.5 19 18.2 47.5 27.2 72.4 22.8 7-1.1 17.7-4.3 23.9-7l11.2-5v-49h-23.9c-23.1 0-24.2-0.1-28.4-4.6-2.6-2.3-4.6-5.6-4.6-7.3 0-1.6 2-4.9 4.6-7.3 4.4-4.6 4.8-4.6 38.7-4.6 46.4 0 42.9-3.7 42.9 45.5v37.4l-5.3 5c-20.5 19.1-70.4 27.9-104.7 18.3-33.1-9-57.8-29-71.6-57.2-14.5-29.9-14.5-60.8-0.2-90.1 14.9-30.1 38.5-49 74-58.9 15.2-4.2 57.6-2.8 72.4 2.6zm-502 0.1c15.1 4.6 28.8 14.9 36 27 4.4 7.7 5.1 10.6 5.1 23.9 0 13.5-0.5 15.6-5.5 22.7-3.1 4.4-9.2 10.5-13.6 13.4l-7.9 5.1 10.7 4.4c11.9 4.8 21.3 13.1 27 23.7 5.6 10.7 5.5 33-0.4 46.3-5.2 11.7-18.9 24.9-31.9 30.8-14.5 6.6-29.4 8.2-77.7 8.2-42 0-44.5-0.1-49.1-3.8l-4.8-3.7v-193.2l4-4.2c3.9-4.2 4.3-4.2 49.8-4.2 40.7 0 47.1 0.3 58.3 3.6zm129.2 1l4.6 4.4v138.9l4.7 9.5c9.6 19.3 30.9 30.1 59.5 30.5 30.5 0.3 52.5-10 62.2-29.2l4.8-9 0.5-70.8c0.6-69 0.8-70.9 4.4-74.9 5.9-6.1 16.5-5.7 21.7 0.9 3.8 4.8 3.8 5.9 3.3 78.4l-0.6 73.5-4.7 10.1c-10 20.6-32.2 36.9-59.7 43.3-18.7 4.4-53.9 2.8-71.5-3.3-16.6-5.8-34-17.6-42.1-28.6-11.7-16.1-11.9-16.9-11.9-98.7v-73.8l4.2-2.7c6.3-4.4 15.4-3.9 20.6 1.5zm484-1l4.8 3.9 1.1 143.8 4.4 7.9c5.7 9.8 17.8 19.3 31.2 24.4 7.9 3.2 14.5 4.1 28.6 4.3 24.8 0.1 40-4.8 52.5-17.3 14.1-14.1 14.5-16.9 14.5-95.6v-67.5l4.8-3.7c6.6-5.1 15.6-4.9 20.7 0.6l4 4.2-1.1 148.2-4.7 10.3c-9.9 20.9-32 36.9-59.9 43.1-16.7 3.7-53 2.8-67.1-1.8-31-9.9-50.3-28.4-57.6-55.2-3.1-12-3.3-138.7-0.2-144.8 4.8-9 15.8-11.2 24-4.8zm-695 81.7h35.8c33.7 0 36.1-0.2 43.6-4.2 10.3-5.5 15.1-13.4 15.1-25.4 0-11.1-5-19.6-14.7-25.3-5.9-3.5-10.1-3.8-43.7-4.4l-37.2-0.5zm-0.9 98.3l40-0.5c39.4-0.6 40-0.6 50.2-5.7 9-4.4 11.2-6.4 15.4-15.2 4.1-8.5 4.8-11.6 3.9-19.3-1.5-11.4-7.7-20.2-18.3-26.1-7.2-3.8-10.3-4-49.4-4.6l-41.8-0.5z"/>
			</g>
		</g>
	</g>
	<g>
	</g>
</svg>